<svg xmlns="http://www.w3.org/2000/svg" xmlns:xlink="http://www.w3.org/1999/xlink" xmlns:lucid="lucid" width="898" height="587"><g transform="translate(1483 291)" lucid:page-tab-id="0_0"><path d="M-1500-1000H500V500h-2000z" fill="#fff"/><path d="M-1427.35-120a.5.5 0 0 0-.5.5V116a12 12 0 0 0 12 12h8" stroke="#333" fill="none"/><path d="M-1388.08-110l-20-10 20-10" stroke="#333" fill="#fff" fill-opacity="0"/><path d="M-1388.08-120h-20M-1408.08-120c0 5.52-4.47 10-10 10-5.52 0-10-4.48-10-10s4.48-10 10-10c5.53 0 10 4.48 10 10M-1407.85 118v20M-1387.85 128h-20" stroke="#333" fill="#fff"/><path d="M-1387.35-235a5 5 0 0 1 5-5h286.97a5 5 0 0 1 5 5v222a5 5 0 0 1-5 5h-286.97a5 5 0 0 1-5-5z" fill="#fff"/><path d="M-1387.35-200v-35a5 5 0 0 1 5-5h286.97a5 5 0 0 1 5 5v35" fill="#ccc"/><path d="M-1387.35-235a5 5 0 0 1 5-5h286.97a5 5 0 0 1 5 5v222a5 5 0 0 1-5 5h-286.97a5 5 0 0 1-5-5zM-1387.35-200h296.97M-1238.87-200V-8" stroke="#333" fill="none"/><use xlink:href="#a" transform="matrix(1,0,0,1,-1377.3522210631602,-240) translate(0 23.6)"/><use xlink:href="#b" transform="matrix(1,0,0,1,-1382.3522210631602,-197.5) translate(0 17.1)"/><use xlink:href="#c" transform="matrix(1,0,0,1,-1233.8670786361624,-197.5) translate(0 17.1)"/><use xlink:href="#d" transform="matrix(1,0,0,1,-1382.3522210631602,-165.5) translate(0 17.1)"/><use xlink:href="#c" transform="matrix(1,0,0,1,-1233.8670786361624,-165.5) translate(0 17.1)"/><use xlink:href="#e" transform="matrix(1,0,0,1,-1382.3522210631602,-133.5) translate(0 17.1)"/><use xlink:href="#c" transform="matrix(1,0,0,1,-1233.8670786361624,-133.5) translate(0 17.1)"/><use xlink:href="#f" transform="matrix(1,0,0,1,-1382.3522210631602,-101.5) translate(0 17.1)"/><use xlink:href="#g" transform="matrix(1,0,0,1,-1233.8670786361624,-101.5) translate(0 17.1)"/><use xlink:href="#h" transform="matrix(1,0,0,1,-1382.3522210631602,-69.5) translate(0 17.1)"/><use xlink:href="#i" transform="matrix(1,0,0,1,-1233.8670786361624,-69.5) translate(0 17.1)"/><use xlink:href="#j" transform="matrix(1,0,0,1,-1382.3522210631602,-37.5) translate(0 17.1)"/><use xlink:href="#k" transform="matrix(1,0,0,1,-1233.8670786361624,-37.5) translate(0 17.1)"/><path d="M-960-191a5 5 0 0 1 5-5h286.97a5 5 0 0 1 5 5v126a5 5 0 0 1-5 5H-955a5 5 0 0 1-5-5z" fill="#fff"/><path d="M-960-156v-35a5 5 0 0 1 5-5h286.97a5 5 0 0 1 5 5v35" fill="#ccc"/><path d="M-960-191a5 5 0 0 1 5-5h286.97a5 5 0 0 1 5 5v126a5 5 0 0 1-5 5H-955a5 5 0 0 1-5-5zM-960-156h296.97M-811.5-156v96" stroke="#333" fill="none"/><use xlink:href="#l" transform="matrix(1,0,0,1,-950,-196) translate(0 23.6)"/><use xlink:href="#b" transform="matrix(1,0,0,1,-955,-153.5) translate(0 17.1)"/><use xlink:href="#c" transform="matrix(1,0,0,1,-806.5148575730022,-153.5) translate(0 17.1)"/><use xlink:href="#m" transform="matrix(1,0,0,1,-955,-121.5) translate(0 17.1)"/><use xlink:href="#g" transform="matrix(1,0,0,1,-806.5148575730022,-121.5) translate(0 17.1)"/><use xlink:href="#n" transform="matrix(1,0,0,1,-955,-89.5) translate(0 17.1)"/><use xlink:href="#g" transform="matrix(1,0,0,1,-806.5148575730022,-89.5) translate(0 17.1)"/><path d="M-1387.35 45a5 5 0 0 1 5-5h286.97a5 5 0 0 1 5 5v190a5 5 0 0 1-5 5h-286.97a5 5 0 0 1-5-5z" fill="#fff"/><path d="M-1387.35 80V45a5 5 0 0 1 5-5h286.97a5 5 0 0 1 5 5v35" fill="#ccc"/><path d="M-1387.35 45a5 5 0 0 1 5-5h286.97a5 5 0 0 1 5 5v190a5 5 0 0 1-5 5h-286.97a5 5 0 0 1-5-5zM-1387.35 80h296.97M-1249.07 80v160" stroke="#333" fill="none"/><use xlink:href="#o" transform="matrix(1,0,0,1,-1377.3522210631602,40) translate(0 23.6)"/><use xlink:href="#b" transform="matrix(1,0,0,1,-1382.3522210631602,82.5) translate(0 17.1)"/><use xlink:href="#c" transform="matrix(1,0,0,1,-1244.0723864872987,82.5) translate(0 17.1)"/><use xlink:href="#d" transform="matrix(1,0,0,1,-1382.3522210631602,114.5) translate(0 17.1)"/><use xlink:href="#c" transform="matrix(1,0,0,1,-1244.0723864872987,114.5) translate(0 17.1)"/><use xlink:href="#p" transform="matrix(1,0,0,1,-1382.3522210631602,146.5) translate(0 17.1)"/><use xlink:href="#c" transform="matrix(1,0,0,1,-1244.0723864872987,146.5) translate(0 17.1)"/><use xlink:href="#h" transform="matrix(1,0,0,1,-1382.3522210631602,178.5) translate(0 17.1)"/><use xlink:href="#i" transform="matrix(1,0,0,1,-1244.0723864872987,178.5) translate(0 17.1)"/><use xlink:href="#j" transform="matrix(1,0,0,1,-1382.3522210631602,210.5) translate(0 17.1)"/><use xlink:href="#k" transform="matrix(1,0,0,1,-1244.0723864872987,210.5) translate(0 17.1)"/><path d="M-960 105a5 5 0 0 1 5-5h286.97a5 5 0 0 1 5 5v126a5 5 0 0 1-5 5H-955a5 5 0 0 1-5-5z" fill="#fff"/><path d="M-960 140v-35a5 5 0 0 1 5-5h286.97a5 5 0 0 1 5 5v35" fill="#ccc"/><path d="M-960 105a5 5 0 0 1 5-5h286.97a5 5 0 0 1 5 5v126a5 5 0 0 1-5 5H-955a5 5 0 0 1-5-5zM-960 140h296.97M-811.5 140v96" stroke="#333" fill="none"/><use xlink:href="#q" transform="matrix(1,0,0,1,-950,100) translate(0 23.6)"/><use xlink:href="#b" transform="matrix(1,0,0,1,-955,142.5) translate(0 17.1)"/><use xlink:href="#c" transform="matrix(1,0,0,1,-806.5148575730022,142.5) translate(0 17.1)"/><use xlink:href="#m" transform="matrix(1,0,0,1,-955,174.5) translate(0 17.1)"/><use xlink:href="#g" transform="matrix(1,0,0,1,-806.5148575730022,174.5) translate(0 17.1)"/><use xlink:href="#r" transform="matrix(1,0,0,1,-955,206.5) translate(0 17.1)"/><use xlink:href="#g" transform="matrix(1,0,0,1,-806.5148575730022,206.5) translate(0 17.1)"/><path d="M-1050.88-120h25.66a.03.03 0 0 1 .03.03.03.03 0 0 0 .04.04h44.66" stroke="#5e5e5e" stroke-width="2" fill="none"/><path d="M-1089.43-130l20 10-20 10" stroke="#5e5e5e" stroke-width="2" fill="#fff" fill-opacity="0"/><path d="M-1089.43-120h20M-1049.43-120c0 5.52-4.48 10-10 10-5.53 0-10-4.48-10-10s4.47-10 10-10c5.52 0 10 4.48 10 10M-980.5-129.93v20M-960.5-119.93h-20" stroke="#5e5e5e" stroke-width="2" fill="#fff"/><path d="M-1050.88 160h25.63a.06.06 0 0 1 .06.06.06.06 0 0 0 .07.06h44.63" stroke="#5e5e5e" stroke-width="2" fill="none"/><path d="M-1089.43 150l20 10-20 10" stroke="#5e5e5e" stroke-width="2" fill="#fff" fill-opacity="0"/><path d="M-1089.43 160h20M-1049.43 160c0 5.52-4.48 10-10 10-5.53 0-10-4.48-10-10s4.47-10 10-10c5.52 0 10 4.48 10 10M-980.5 150.12v20M-960.5 160.12h-20" stroke="#5e5e5e" stroke-width="2" fill="#fff"/><path d="M-1050.88 60h233.37a6 6 0 0 0 6-6v-93.5" stroke="#5e5e5e" stroke-width="2" fill="none"/><path d="M-1089.43 50l20 10-20 10" stroke="#5e5e5e" stroke-width="2" fill="#fff" fill-opacity="0"/><path d="M-1089.43 60h20M-1049.43 60c0 5.52-4.48 10-10 10-5.53 0-10-4.48-10-10s4.47-10 10-10c5.52 0 10 4.48 10 10M-821.5-39.5h20M-811.5-59.5v20" stroke="#5e5e5e" stroke-width="2" fill="#fff"/><defs><path fill="#333" d="M222 0l43-216c-8 16-17 34-26 49L143 0h-22L81-216 41 0H11l48-248h42l38 208 116-208h45L252 0h-30" id="s"/><path fill="#333" d="M30-147c31-64 166-65 159 27C183-49 158 1 86 4 9 8 1-88 30-147zM88-20c53 0 68-48 68-100 0-31-11-51-44-50-52 1-68 46-68 97 0 32 13 53 44 53" id="t"/><path fill="#333" d="M89 0H52L20-190h33L74-25l89-165h34" id="u"/><path fill="#333" d="M111-194c62-3 86 47 72 106H45c-7 38 6 69 45 68 27-1 43-14 53-32l24 11C152-15 129 4 87 4 38 3 12-23 12-71c0-70 32-119 99-123zm44 81c14-66-71-72-95-28-4 8-8 17-11 28h106" id="v"/><path fill="#333" d="M248-111c6-24 9-61-24-58-72 9-57 108-77 169h-31l26-142c3-37-50-30-64-10C52-115 50-51 37 0H6l36-190h30c-1 10-6 24-4 32 13-43 101-52 105 5 13-22 29-41 61-41 90 0 28 129 23 194h-31" id="w"/><path fill="#333" d="M67-158c22-48 132-52 116 29L158 0h-32l25-140c3-38-53-32-70-12C52-117 51-52 38 0H6l36-190h30" id="x"/><path fill="#333" d="M51-54c-9 22 5 41 31 30L79-1C43 14 10-4 19-52l22-115H19l5-23h22l19-43h21l-9 43h35l-4 23H73" id="y"/><g id="a"><use transform="matrix(0.05,0,0,0.05,0,0)" xlink:href="#s"/><use transform="matrix(0.05,0,0,0.05,14.950000000000001,0)" xlink:href="#t"/><use transform="matrix(0.05,0,0,0.05,24.950000000000003,0)" xlink:href="#u"/><use transform="matrix(0.05,0,0,0.05,33.95,0)" xlink:href="#v"/><use transform="matrix(0.05,0,0,0.05,43.95,0)" xlink:href="#w"/><use transform="matrix(0.05,0,0,0.05,58.900000000000006,0)" xlink:href="#v"/><use transform="matrix(0.05,0,0,0.05,68.9,0)" xlink:href="#x"/><use transform="matrix(0.05,0,0,0.05,78.9,0)" xlink:href="#y"/></g><path fill="#333" d="M-28 44V31h207v13H-28" id="z"/><path fill="#333" d="M50-231l6-30h32l-6 30H50zM6 0l37-190h31L37 0H6" id="A"/><path fill="#333" d="M133-28C103 26-5 8 13-77c13-62 24-115 90-117 29-1 46 15 56 35l19-102h32L160 0h-30zM45-64c-2 27 10 43 35 43 54-1 69-50 69-103 0-29-15-46-42-46-53-1-58 58-62 106" id="B"/><g id="b"><use transform="matrix(0.05,0,0,0.05,0,0)" xlink:href="#z"/><use transform="matrix(0.05,0,0,0.05,10,0)" xlink:href="#A"/><use transform="matrix(0.05,0,0,0.05,13.949999999999998,0)" xlink:href="#B"/></g><path fill="#333" d="M20-101c0-91 52-143 145-150 126-9 127 168 53 223-23 17-55 32-93 32C57 4 20-33 20-101zm216-33c5-57-18-91-73-90-77 1-110 51-110 125 0 49 23 75 73 75 72-1 104-45 110-110" id="C"/><path fill="#333" d="M68-162c25-46 127-43 121 31C183-60 169 1 98 4 69 5 53-11 43-31L36 0H5l52-261h31zm88 36c2-27-9-43-34-43-55 0-70 51-70 103 0 29 15 45 43 46 52 0 58-58 61-106" id="D"/><path fill="#333" d="M51-231l6-30h31l-6 30H51zM33 24C28 60 2 84-40 72c3-12-1-29 18-22C-5 49-1 37 2 19l41-209h32" id="E"/><path fill="#333" d="M44-68c0 29 11 47 38 47 30 0 42-19 51-41l28 9C148-21 126 4 82 4 31 4 10-29 12-85c3-77 74-140 146-93 12 8 15 23 18 40l-31 5c-1-22-13-36-36-36-52 0-65 49-65 101" id="F"/><path fill="#333" d="M14 0l48-248h34L48 0H14" id="G"/><g id="c"><use transform="matrix(0.05,0,0,0.05,0,0)" xlink:href="#C"/><use transform="matrix(0.05,0,0,0.05,14,0)" xlink:href="#D"/><use transform="matrix(0.05,0,0,0.05,24,0)" xlink:href="#E"/><use transform="matrix(0.05,0,0,0.05,27.950000000000003,0)" xlink:href="#v"/><use transform="matrix(0.05,0,0,0.05,37.95,0)" xlink:href="#F"/><use transform="matrix(0.05,0,0,0.05,46.95,0)" xlink:href="#y"/><use transform="matrix(0.05,0,0,0.05,51.95,0)" xlink:href="#G"/><use transform="matrix(0.05,0,0,0.05,56.95,0)" xlink:href="#B"/></g><path fill="#333" d="M67 3c-93-2-31-127-26-193h32L48-50c-3 39 53 32 70 12 30-34 30-101 43-152h32L157 0h-30c1-10 6-24 4-33-14 20-29 37-64 36" id="H"/><path fill="#333" d="M66-151c12-25 30-51 66-40l-6 26C45-176 58-65 38 0H6l36-190h30" id="I"/><path fill="#333" d="M198-190L69 30C53 58 25 83-20 72c4-11-1-27 19-22 33-1 43-29 59-52L20-190h32L79-34l84-156h35" id="J"/><g id="d"><use transform="matrix(0.05,0,0,0.05,0,0)" xlink:href="#F"/><use transform="matrix(0.05,0,0,0.05,9,0)" xlink:href="#H"/><use transform="matrix(0.05,0,0,0.05,19,0)" xlink:href="#I"/><use transform="matrix(0.05,0,0,0.05,24.95,0)" xlink:href="#I"/><use transform="matrix(0.05,0,0,0.05,30.899999999999995,0)" xlink:href="#v"/><use transform="matrix(0.05,0,0,0.05,40.9,0)" xlink:href="#x"/><use transform="matrix(0.05,0,0,0.05,50.9,0)" xlink:href="#F"/><use transform="matrix(0.05,0,0,0.05,59.900000000000006,0)" xlink:href="#J"/><use transform="matrix(0.05,0,0,0.05,68.9,0)" xlink:href="#G"/><use transform="matrix(0.05,0,0,0.05,73.9,0)" xlink:href="#B"/></g><path fill="#333" d="M55-144c13 50 104 24 104 88C159 21 15 23 1-39l26-10c6 40 102 42 102-4-13-50-104-23-104-87 0-71 143-71 148-8l-29 4c-5-35-85-37-89 0" id="K"/><path fill="#333" d="M165-48c-4 18 1 34 23 27l-3 20c-29 8-62 0-52-35h-2C116-14 99 4 63 4 30 4 8-16 8-49c0-68 71-67 138-67 10-26 0-56-31-54-26 1-42 9-47 31l-32-5c8-67 160-71 144 15-5 28-9 54-15 81zM42-50c3 52 80 24 89-6 7-12 7-24 11-38-47 1-103-4-100 44" id="L"/><path fill="#333" d="M103-194c29 0 47 14 56 36 2-11 5-23 8-32h30L160-5C157 61 82 97 21 62 9 55 4 45 1 30l28-7c7 42 83 31 92-3 4-16 9-38 13-55-13 20-29 36-62 36-40 0-60-25-60-64 0-71 23-131 91-131zm4 24c-53 0-58 54-61 104-2 27 10 44 36 44 49 0 65-50 67-102 1-29-15-46-42-46" id="M"/><g id="e"><use transform="matrix(0.05,0,0,0.05,0,0)" xlink:href="#K"/><use transform="matrix(0.05,0,0,0.05,9,0)" xlink:href="#L"/><use transform="matrix(0.05,0,0,0.05,19,0)" xlink:href="#u"/><use transform="matrix(0.05,0,0,0.05,28,0)" xlink:href="#A"/><use transform="matrix(0.05,0,0,0.05,31.950000000000003,0)" xlink:href="#x"/><use transform="matrix(0.05,0,0,0.05,41.95,0)" xlink:href="#M"/><use transform="matrix(0.05,0,0,0.05,51.95,0)" xlink:href="#G"/><use transform="matrix(0.05,0,0,0.05,56.95,0)" xlink:href="#B"/></g><path fill="#333" d="M67-162c32-53 139-36 121 50C175-51 163 2 97 4 68 4 52-11 42-31 38 6 28 39 22 75H-9l50-265h29c-1 10 0 20-3 28zm89 36c0-26-10-43-35-43-54 0-67 50-69 103-1 29 14 45 42 46 53 0 62-58 62-106" id="N"/><g id="f"><use transform="matrix(0.05,0,0,0.05,0,0)" xlink:href="#F"/><use transform="matrix(0.05,0,0,0.05,9,0)" xlink:href="#t"/><use transform="matrix(0.05,0,0,0.05,19,0)" xlink:href="#x"/><use transform="matrix(0.05,0,0,0.05,29,0)" xlink:href="#F"/><use transform="matrix(0.05,0,0,0.05,38,0)" xlink:href="#v"/><use transform="matrix(0.05,0,0,0.05,48,0)" xlink:href="#N"/><use transform="matrix(0.05,0,0,0.05,58,0)" xlink:href="#y"/></g><path fill="#333" d="M194-120c59 52 2 134-86 124-53-6-90-18-98-63l31-7c8 30 29 43 70 43 46 0 84-17 71-62-32-43-135-20-137-98-3-89 178-90 191-16l-30 9c-8-48-127-53-127 5 0 53 81 35 115 65" id="O"/><g id="g"><use transform="matrix(0.05,0,0,0.05,0,0)" xlink:href="#O"/><use transform="matrix(0.05,0,0,0.05,12,0)" xlink:href="#y"/><use transform="matrix(0.05,0,0,0.05,17,0)" xlink:href="#I"/><use transform="matrix(0.05,0,0,0.05,22.95,0)" xlink:href="#A"/><use transform="matrix(0.05,0,0,0.05,26.899999999999995,0)" xlink:href="#x"/><use transform="matrix(0.05,0,0,0.05,36.9,0)" xlink:href="#M"/></g><g id="h"><use transform="matrix(0.05,0,0,0.05,0,0)" xlink:href="#L"/><use transform="matrix(0.05,0,0,0.05,10,0)" xlink:href="#w"/><use transform="matrix(0.05,0,0,0.05,24.950000000000003,0)" xlink:href="#t"/><use transform="matrix(0.05,0,0,0.05,34.95,0)" xlink:href="#H"/><use transform="matrix(0.05,0,0,0.05,44.95,0)" xlink:href="#x"/><use transform="matrix(0.05,0,0,0.05,54.95,0)" xlink:href="#y"/></g><path fill="#333" d="M248-139C247-14 144 9 11 0l48-248c105-6 190 8 189 109zm-34 0c1-70-52-87-126-82L50-27c98 7 163-21 164-112" id="P"/><path fill="#333" d="M6 0l50-261h32L37 0H6" id="Q"/><g id="i"><use transform="matrix(0.05,0,0,0.05,0,0)" xlink:href="#P"/><use transform="matrix(0.05,0,0,0.05,12.950000000000001,0)" xlink:href="#t"/><use transform="matrix(0.05,0,0,0.05,22.950000000000003,0)" xlink:href="#H"/><use transform="matrix(0.05,0,0,0.05,32.95,0)" xlink:href="#D"/><use transform="matrix(0.05,0,0,0.05,42.95,0)" xlink:href="#Q"/><use transform="matrix(0.05,0,0,0.05,46.900000000000006,0)" xlink:href="#v"/></g><g id="j"><use transform="matrix(0.05,0,0,0.05,0,0)" xlink:href="#L"/><use transform="matrix(0.05,0,0,0.05,10,0)" xlink:href="#F"/><use transform="matrix(0.05,0,0,0.05,19,0)" xlink:href="#y"/><use transform="matrix(0.05,0,0,0.05,24,0)" xlink:href="#A"/><use transform="matrix(0.05,0,0,0.05,27.950000000000003,0)" xlink:href="#u"/><use transform="matrix(0.05,0,0,0.05,36.95,0)" xlink:href="#v"/></g><path fill="#333" d="M219-77C219 17 104-2 11 0l48-248c73 2 169-15 169 57 0 38-24 54-60 60 29 5 51 21 51 54zm-26-111c0-44-62-31-105-33l-16 79c55 0 121 9 121-46zm-7 110c-1-49-69-36-119-38L50-27c61-1 137 12 136-51" id="R"/><g id="k"><use transform="matrix(0.05,0,0,0.05,0,0)" xlink:href="#R"/><use transform="matrix(0.05,0,0,0.05,12,0)" xlink:href="#t"/><use transform="matrix(0.05,0,0,0.05,22,0)" xlink:href="#t"/><use transform="matrix(0.05,0,0,0.05,32,0)" xlink:href="#Q"/><use transform="matrix(0.05,0,0,0.05,35.95,0)" xlink:href="#v"/><use transform="matrix(0.05,0,0,0.05,45.95,0)" xlink:href="#L"/><use transform="matrix(0.05,0,0,0.05,55.95,0)" xlink:href="#x"/></g><path fill="#333" d="M125-24c46 0 70-25 89-51l25 16C214-24 183 4 123 4 8 4-5-146 60-208c32-50 158-61 191-5 5 7 9 14 11 22l-32 10c-9-28-33-43-69-43-74 0-108 51-108 125 0 46 24 75 72 75" id="S"/><g id="l"><use transform="matrix(0.05,0,0,0.05,0,0)" xlink:href="#S"/><use transform="matrix(0.05,0,0,0.05,12.950000000000001,0)" xlink:href="#H"/><use transform="matrix(0.05,0,0,0.05,22.950000000000003,0)" xlink:href="#I"/><use transform="matrix(0.05,0,0,0.05,28.900000000000002,0)" xlink:href="#I"/><use transform="matrix(0.05,0,0,0.05,34.85,0)" xlink:href="#v"/><use transform="matrix(0.05,0,0,0.05,44.85,0)" xlink:href="#x"/><use transform="matrix(0.05,0,0,0.05,54.85,0)" xlink:href="#F"/><use transform="matrix(0.05,0,0,0.05,63.85,0)" xlink:href="#J"/></g><g id="m"><use transform="matrix(0.05,0,0,0.05,0,0)" xlink:href="#x"/><use transform="matrix(0.05,0,0,0.05,10,0)" xlink:href="#L"/><use transform="matrix(0.05,0,0,0.05,20,0)" xlink:href="#w"/><use transform="matrix(0.05,0,0,0.05,34.95,0)" xlink:href="#v"/></g><path fill="#333" d="M62-99C39-31 123 0 170-40s38-139 58-208h34C234-144 253 4 115 4 49 4 18-43 31-112l26-136h34" id="T"/><g id="n"><use transform="matrix(0.05,0,0,0.05,0,0)" xlink:href="#A"/><use transform="matrix(0.05,0,0,0.05,3.95,0)" xlink:href="#w"/><use transform="matrix(0.05,0,0,0.05,18.900000000000002,0)" xlink:href="#L"/><use transform="matrix(0.05,0,0,0.05,28.900000000000002,0)" xlink:href="#M"/><use transform="matrix(0.05,0,0,0.05,38.900000000000006,0)" xlink:href="#v"/><use transform="matrix(0.05,0,0,0.05,48.900000000000006,0)" xlink:href="#T"/><use transform="matrix(0.05,0,0,0.05,61.85,0)" xlink:href="#I"/><use transform="matrix(0.05,0,0,0.05,67.80000000000001,0)" xlink:href="#Q"/></g><g id="o"><use transform="matrix(0.05,0,0,0.05,0,0)" xlink:href="#O"/><use transform="matrix(0.05,0,0,0.05,12,0)" xlink:href="#L"/><use transform="matrix(0.05,0,0,0.05,22,0)" xlink:href="#u"/><use transform="matrix(0.05,0,0,0.05,31,0)" xlink:href="#A"/><use transform="matrix(0.05,0,0,0.05,34.95,0)" xlink:href="#x"/><use transform="matrix(0.05,0,0,0.05,44.95,0)" xlink:href="#M"/></g><g id="p"><use transform="matrix(0.05,0,0,0.05,0,0)" xlink:href="#y"/><use transform="matrix(0.05,0,0,0.05,5,0)" xlink:href="#L"/><use transform="matrix(0.05,0,0,0.05,15,0)" xlink:href="#M"/><use transform="matrix(0.05,0,0,0.05,25,0)" xlink:href="#G"/><use transform="matrix(0.05,0,0,0.05,30,0)" xlink:href="#B"/></g><path fill="#333" d="M151-220L108 0H75l42-220H32l6-28h203l-5 28h-85" id="U"/><g id="q"><use transform="matrix(0.05,0,0,0.05,0,0)" xlink:href="#U"/><use transform="matrix(0.05,0,0,0.05,9.3,0)" xlink:href="#L"/><use transform="matrix(0.05,0,0,0.05,19.3,0)" xlink:href="#M"/></g><g id="r"><use transform="matrix(0.05,0,0,0.05,0,0)" xlink:href="#B"/><use transform="matrix(0.05,0,0,0.05,10,0)" xlink:href="#v"/><use transform="matrix(0.05,0,0,0.05,20,0)" xlink:href="#K"/><use transform="matrix(0.05,0,0,0.05,29,0)" xlink:href="#F"/><use transform="matrix(0.05,0,0,0.05,38,0)" xlink:href="#I"/><use transform="matrix(0.05,0,0,0.05,43.95,0)" xlink:href="#A"/><use transform="matrix(0.05,0,0,0.05,47.900000000000006,0)" xlink:href="#N"/><use transform="matrix(0.05,0,0,0.05,57.900000000000006,0)" xlink:href="#y"/><use transform="matrix(0.05,0,0,0.05,62.900000000000006,0)" xlink:href="#A"/><use transform="matrix(0.05,0,0,0.05,66.85000000000001,0)" xlink:href="#t"/><use transform="matrix(0.05,0,0,0.05,76.85000000000001,0)" xlink:href="#x"/></g></defs></g></svg>